<svg width="24" height="24" xmlns="http://www.w3.org/2000/svg">
    <path d="M18.42,14.29a2.8,2.8,0,0,0-1.11.23,6.94,6.94,0,0,0-1.74,1.11,11.84,11.84,0,0,1-1.45,1c-.39.21-.77.42-1.15.61a7.77,7.77,0,0,1-3.43.84,8.1,8.1,0,0,1-3.27-.67,7.68,7.68,0,0,1-2.63-1.89,8.77,8.77,0,0,1-1.73-2.83A9.64,9.64,0,0,1,2,9.86,9.87,9.87,0,0,1,3.73,5.4,9.39,9.39,0,0,1,7.08,2.55,9.69,9.69,0,0,1,12,1.5a9.26,9.26,0,0,1,4.92,1.32,9.08,9.08,0,0,1,2.5,2.14l.7-.67A10.18,10.18,0,0,0,17,1.93,10.85,10.85,0,0,0,12,.5a10.8,10.8,0,0,0-5.51,1.44A10.61,10.61,0,0,0,2.65,5.1,10.47,10.47,0,0,0,1,10.5a10.23,10.23,0,0,0,1.65,5.64,10.47,10.47,0,0,0,4.45,3.93,10.8,10.8,0,0,0,5.51,1.44,10.42,10.42,0,0,0,4.92-1.17,11.31,11.31,0,0,0,3.77-3.18,2.75,2.75,0,0,0,.7-1.8A2.65,2.65,0,0,0,18.42,14.29Z" fill="#232f3e"/>
    <path d="M21.43,15.47a.77.77,0,0,0-.7-.44.81.81,0,0,0-.7.44,2.75,2.75,0,0,0-.23.89,1.61,1.61,0,0,0,.23.89.77.77,0,0,0,.7.44.81.81,0,0,0,.7-.44,2.75,2.75,0,0,0,.23-.89A1.61,1.61,0,0,0,21.43,15.47Z" fill="#232f3e"/>
</svg> 